<svg class="icon" xmlns="http://www.w3.org/2000/svg" version="1.2" viewBox="0 0 1383 1382"
    width="1383"
    height="1382">
    <title>Linkedin</title>
    <g id="layer1">
        <g id="g1917">
            <g id="g1915">
                <g id="g1913">
                    <g id="g1905">
                        <path id="path1903" fill-rule="evenodd" class="s0" fill="currentColor"
                            d="m1382.6 99.3v1182.8c0 55.1-60.1 99.3-116.6 99.3h-1177.8c-56.5 0-87.8-44.2-87.8-99.3v-1182.8c0-54.7 47.9-99.3 104-99.3h1178.2c56.1 0 100 44.6 100 99.3zm-855.9 1085h197.5v-316.2c0-110.1 47.5-177.4 146.8-177.4 81.7 0 116.6 77 116.6 164.4v329.2h197.5v-365.2c0-195.7-55.4-301.1-254.4-301.1-103.6 0-187.4 51.8-215.8 103.3h-1.8v-95h-186.4zm-328.8 0h197.5v-658h-197.5zm186-975.2c-23.4-23-54.7-36-87.4-36-32.7 0-64 13-87.1 36-23.3 23.4-36.3 54.7-36.3 87.4 0 32.7 13 64 36.3 87.1 23.1 23 54.4 35.9 87.1 35.9 32.7 0 64.4-12.9 87.4-35.9 23-23.1 36-54.7 36-87.5 0-32.3-13-64-36-87z" />
                    </g>
                </g>
            </g>
        </g>
    </g>
</svg>